<?xml version="1.0" standalone="no"?>
<!DOCTYPE svg PUBLIC "-//W3C//DTD SVG 20010904//EN"
 "http://www.w3.org/TR/2001/REC-SVG-20010904/DTD/svg10.dtd">
<svg version="1.0" xmlns="http://www.w3.org/2000/svg"
 width="1041.000000pt" height="989.000000pt" viewBox="0 0 1041.000000 989.000000"
 preserveAspectRatio="xMidYMid meet">
<metadata>
Created by potrace 1.16, written by Peter Selinger 2001-2019
</metadata>
<g transform="translate(0.000000,989.000000) scale(0.100000,-0.100000)"
fill="#000000" stroke="none">
<path d="M4395 9694 c-634 -32 -1078 -99 -1394 -209 -199 -70 -351 -162 -409
-250 -38 -57 -47 -104 -63 -307 l-12 -157 -39 -43 c-61 -67 -121 -147 -162
-218 -40 -67 -106 -219 -106 -242 0 -7 -23 -32 -50 -56 -52 -45 -90 -107 -110
-181 -14 -53 -15 -167 -1 -203 30 -78 219 -284 328 -358 39 -26 54 -43 57 -65
10 -56 158 -2207 153 -2212 -3 -2 -86 3 -184 13 -133 13 -271 18 -548 18 -424
1 -501 -7 -546 -55 -36 -38 -57 -122 -69 -274 -20 -239 20 -673 75 -812 8 -21
31 -92 50 -157 46 -152 75 -212 132 -276 111 -124 251 -140 509 -59 158 50
253 130 284 239 31 104 19 333 -20 410 -58 113 -220 136 -433 60 l-78 -28 -9
23 c-26 68 -63 272 -67 370 -7 155 -12 150 164 149 84 0 222 -11 353 -27 118
-15 261 -30 318 -33 93 -6 103 -9 107 -28 2 -12 49 -673 105 -1471 80 -1139
99 -1450 89 -1454 -7 -2 -78 -36 -158 -76 -158 -78 -347 -188 -508 -296 -56
-38 -106 -69 -110 -69 -4 0 -48 60 -98 132 -262 383 -510 719 -544 738 -14 7
-85 -18 -312 -109 -481 -195 -871 -359 -899 -379 -62 -46 -88 -150 -56 -225
28 -67 113 -129 231 -169 62 -20 88 -23 230 -22 125 0 181 5 255 21 113 25
267 74 368 115 42 17 77 27 82 22 5 -5 55 -81 111 -169 187 -294 352 -511 429
-563 31 -21 43 -23 100 -19 198 16 852 316 1236 566 19 13 30 9 110 -36 475
-268 1009 -438 1604 -510 206 -25 762 -25 975 0 406 48 783 134 1115 254 174
63 178 65 191 118 6 25 15 48 20 51 17 10 1124 193 1130 186 3 -4 36 -83 74
-177 191 -479 395 -925 456 -999 l32 -38 66 6 c36 4 111 16 166 27 227 46 825
206 970 259 113 42 225 187 225 292 0 100 -84 204 -202 251 -183 73 -422 55
-831 -63 -94 -28 -177 -50 -183 -50 -5 0 -56 93 -111 207 -56 115 -158 324
-226 465 -91 186 -133 261 -152 274 -100 66 -555 -14 -1164 -202 -79 -25 -145
-43 -147 -41 -5 4 677 2600 685 2609 3 3 26 3 51 -2 120 -24 401 -62 550 -75
366 -33 604 -8 718 75 143 103 295 436 386 846 20 88 36 170 36 181 0 12 22
37 59 66 33 25 82 78 109 116 27 39 72 91 99 115 88 79 142 226 143 384 0 40
-6 87 -14 105 -57 138 -420 289 -701 291 -76 1 -107 -3 -131 -16 -43 -23 -89
-79 -105 -125 -14 -41 -18 -181 -7 -254 l7 -45 -65 -32 c-127 -63 -205 -164
-190 -247 8 -43 54 -97 110 -130 22 -13 94 -45 159 -70 65 -26 127 -55 138
-64 21 -17 21 -18 5 -81 -9 -36 -37 -117 -63 -180 -61 -155 -244 -530 -257
-530 -42 2 -907 127 -912 132 -3 4 128 519 293 1145 l299 1138 82 45 c162 89
285 199 337 304 42 84 32 186 -25 266 -17 23 -21 48 -24 137 -5 137 -40 275
-102 400 l-45 92 -21 248 c-23 289 -32 316 -125 414 -383 403 -1738 749 -3318
849 -169 11 -926 21 -1060 14z m825 -69 c1230 -38 2591 -306 3217 -634 243
-128 383 -267 383 -381 0 -179 -319 -346 -840 -440 -411 -74 -705 -95 -1335
-95 -526 0 -653 5 -1100 46 -1729 156 -3089 642 -2920 1045 64 154 405 298
895 378 482 79 979 103 1700 81z m-2721 -1032 c-16 -142 -11 -214 18 -274 241
-483 1963 -932 3793 -988 1029 -32 1919 75 2340 283 187 92 276 186 290 306
l6 55 27 -110 c41 -167 45 -239 17 -303 -92 -213 -572 -382 -1315 -461 -329
-36 -449 -42 -890 -48 -539 -7 -950 10 -1470 63 -1399 140 -2606 486 -2953
847 -74 78 -101 133 -102 205 0 87 63 243 152 377 32 48 86 115 93 115 1 0 -2
-30 -6 -67z m137 -1280 c569 -293 1464 -495 2713 -613 495 -47 964 -70 1404
-70 768 0 1340 74 1777 229 46 16 86 28 88 27 2 -3 -543 -2088 -563 -2156 -6
-18 -42 -24 -400 -70 -275 -35 -572 -63 -905 -87 -353 -25 -1345 -25 -1646 0
-881 73 -1504 217 -2043 473 -106 50 -336 182 -389 223 -24 17 -24 20 -98
1062 -40 574 -74 1046 -74 1047 0 5 1 4 136 -65z m6955 -1113 c175 -36 345
-108 424 -181 53 -49 63 -92 46 -203 -27 -187 -104 -294 -224 -316 -75 -14
-192 2 -315 42 -137 45 -191 81 -223 147 -59 120 -91 354 -59 436 14 36 47 74
75 85 37 16 176 10 276 -10z m-386 -452 c14 -61 52 -134 85 -161 101 -85 319
-157 476 -157 l76 0 -33 -42 c-27 -34 -98 -88 -130 -100 -4 -2 -21 -70 -38
-153 -84 -418 -205 -727 -336 -861 -52 -53 -70 -65 -130 -83 -148 -47 -422
-47 -785 -1 -179 23 -379 56 -387 64 -4 4 32 156 74 307 4 13 13 14 56 8 197
-31 921 -128 927 -124 12 7 184 359 239 487 56 132 96 251 105 318 11 84 -13
105 -216 186 -147 58 -198 98 -198 155 0 32 7 48 40 83 33 36 138 105 162 106
3 0 10 -15 13 -32z m-7050 -593 c251 -9 507 -37 577 -64 44 -16 107 -80 117
-118 13 -44 1 -74 -39 -103 -84 -60 -232 -65 -610 -19 -314 37 -458 41 -515
13 -23 -11 -46 -32 -55 -49 -18 -37 -19 -169 -1 -275 14 -80 65 -292 81 -334
l9 -25 65 29 c147 67 303 89 376 52 49 -24 70 -73 81 -192 17 -179 -16 -288
-105 -349 -87 -60 -266 -113 -386 -114 -163 -2 -246 80 -315 308 -15 50 -42
135 -60 190 -46 138 -66 290 -72 555 -8 334 14 463 82 483 70 20 406 25 770
12z m1075 -255 c501 -206 1125 -335 1913 -396 237 -18 1030 -27 1297 -14 534
26 1127 84 1538 149 46 7 52 6 48 -8 -3 -9 -45 -171 -95 -361 -70 -269 -515
-1966 -561 -2141 -10 -35 -11 -36 -127 -72 -332 -103 -731 -180 -1153 -222
-185 -19 -729 -27 -915 -14 -731 51 -1391 225 -1991 523 -104 52 -223 114
-264 138 l-75 43 -77 1085 c-42 597 -77 1100 -78 1118 0 25 4 32 20 32 29 0
100 30 138 58 74 54 92 132 48 209 l-25 42 120 -60 c66 -33 174 -82 239 -109z
m-89 -2605 c229 -115 397 -185 654 -270 366 -122 754 -207 1155 -251 195 -21
785 -30 990 -15 457 34 875 106 1245 214 83 25 151 43 153 42 2 -2 -49 -203
-114 -448 l-117 -445 -91 -35 c-465 -177 -999 -280 -1526 -294 -608 -16 -1188
89 -1740 314 -100 41 -362 168 -439 213 l-54 32 67 60 c149 135 161 234 45
385 -55 70 -104 93 -200 93 -66 0 -200 -28 -261 -55 -15 -6 -18 -2 -18 21 0
16 -9 148 -20 294 -11 146 -20 273 -20 282 0 14 11 11 63 -19 34 -19 137 -73
228 -118z m-1612 -325 c70 -96 210 -293 310 -437 101 -145 185 -263 187 -263
3 0 57 35 122 78 443 296 835 482 1017 482 77 0 109 -15 153 -73 53 -69 62
-89 62 -132 0 -82 -64 -153 -255 -280 -336 -224 -982 -524 -1187 -551 -48 -7
-51 -6 -95 37 -24 24 -82 94 -128 154 -75 100 -300 437 -367 549 l-28 46 -47
-24 c-142 -71 -401 -146 -577 -166 -304 -36 -558 87 -507 243 7 19 20 42 31
52 18 17 243 112 840 355 245 100 318 126 328 117 8 -6 71 -90 141 -187z
m7041 -210 c24 -24 84 -142 262 -520 153 -325 208 -426 238 -435 11 -4 95 15
197 45 249 73 386 100 535 107 144 7 225 -5 303 -44 122 -61 165 -152 121
-257 -25 -60 -101 -133 -165 -156 -205 -77 -986 -274 -1116 -282 l-50 -3 -72
145 c-76 151 -271 601 -388 895 -38 94 -71 173 -74 177 -4 4 -262 -35 -575
-88 -313 -52 -571 -93 -573 -90 -6 6 54 227 64 237 8 7 195 67 373 118 166 48
458 118 582 140 148 26 160 28 246 30 60 1 75 -2 92 -19z"/>
<path d="M4610 9523 c-666 -31 -1159 -150 -1330 -322 -211 -211 17 -457 615
-661 957 -326 2534 -460 3535 -299 487 77 763 213 795 390 20 111 -80 239
-270 349 -482 275 -1470 485 -2545 540 -177 9 -637 11 -800 3z m855 -73 c743
-43 1414 -152 1938 -314 477 -149 757 -327 757 -481 0 -77 -95 -162 -250 -224
-239 -95 -595 -156 -1075 -182 -233 -12 -756 -7 -987 11 l-128 9 -885 559
-885 560 108 16 c142 21 281 35 427 45 176 12 784 12 980 1z"/>
<path d="M2720 9055 c0 -17 33 -65 67 -96 49 -47 158 -124 259 -183 l79 -46
105 0 105 0 -165 165 -165 165 -142 0 c-79 0 -143 -2 -143 -5z"/>
<path d="M4328 6729 c-130 -30 -253 -138 -323 -283 -47 -95 -72 -183 -62 -210
7 -19 46 -22 51 -3 69 265 168 385 359 433 197 51 470 -75 524 -240 13 -41 38
-55 59 -34 15 15 14 21 -11 77 -53 117 -205 229 -353 260 -61 13 -190 13 -244
0z"/>
<path d="M7105 6463 c-72 -16 -155 -51 -217 -92 -86 -56 -111 -82 -102 -105
10 -26 43 -19 87 20 105 89 270 138 397 116 205 -35 340 -186 374 -417 11 -75
13 -80 36 -80 21 0 25 5 28 36 2 19 -4 69 -12 110 -42 199 -185 355 -371 404
-55 14 -174 19 -220 8z"/>
<path d="M4663 5789 c-83 -20 -143 -112 -143 -218 1 -229 165 -531 385 -708
144 -116 275 -181 462 -230 100 -26 122 -28 298 -28 157 0 209 4 302 23 317
64 560 198 724 401 66 81 128 196 155 287 21 72 24 205 5 258 -43 123 -207
195 -396 173 -43 -5 -155 -37 -290 -82 -501 -170 -654 -167 -1050 18 -77 36
-168 75 -203 86 -73 25 -190 34 -249 20z m221 -76 c28 -8 128 -50 221 -94 253
-116 316 -132 500 -133 204 -1 301 21 665 150 129 46 140 48 245 48 103 1 114
-1 177 -31 88 -41 112 -83 111 -193 -2 -191 -125 -400 -325 -550 -296 -223
-781 -309 -1147 -204 -287 83 -531 285 -662 546 -96 190 -111 394 -34 458 38
32 147 33 249 3z"/>
<path d="M5706 4150 c-109 -18 -210 -50 -321 -104 -447 -218 -776 -689 -802
-1146 -14 -256 95 -530 210 -530 132 1 532 352 637 559 15 31 58 125 93 209
76 176 152 310 238 416 74 93 133 144 290 251 67 46 130 96 140 112 21 31 25
93 9 124 -14 25 -109 73 -186 93 -74 20 -230 28 -308 16z"/>
<path d="M6224 3840 c-44 -21 -117 -68 -165 -104 -168 -127 -282 -273 -379
-486 -194 -425 -318 -602 -523 -741 -207 -141 -237 -171 -237 -240 0 -50 27
-81 99 -113 98 -44 189 -59 326 -53 152 6 257 35 420 117 150 75 264 160 385
287 369 385 497 896 319 1270 -55 116 -112 131 -245 63z"/>
</g>
</svg>
